<svg width="512" height="512" viewBox="0 0 512 512" fill="none" xmlns="http://www.w3.org/2000/svg">
  <rect width="512" height="512" fill="url(#paint0_linear)"/>
  
  <!-- Book Base -->
  <path d="M140 340C140 320 160 300 200 300H372V380H200C160 380 140 360 140 340Z" fill="white" fill-opacity="0.2"/>
  <path d="M140 180C140 160 160 140 200 140H372V340H200C160 340 140 320 140 300V180Z" fill="white"/>
  
  <!-- Book Pages Detail -->
  <path d="M200 160H352V320H200C175 320 160 310 160 290V190C160 170 175 160 200 160Z" fill="#F8FAFC"/>
  
  <!-- Graduation Cap / Spark -->
  <path d="M256 120L310 150L256 180L202 150L256 120Z" fill="#FBBF24"/>
  <path d="M310 150V190C310 190 280 210 256 210C232 210 202 190 202 190V150" stroke="#FBBF24" stroke-width="8" stroke-linecap="round" stroke-linejoin="round"/>
  <path d="M310 165L330 210" stroke="#FBBF24" stroke-width="6" stroke-linecap="round"/>
  <circle cx="330" cy="215" r="5" fill="#FBBF24"/>

  <defs>
    <linearGradient id="paint0_linear" x1="0" y1="0" x2="512" y2="512" gradientUnits="userSpaceOnUse">
      <stop stop-color="#2563EB"/>
      <stop offset="1" stop-color="#4F46E5"/>
    </linearGradient>
  </defs>
</svg>
